<svg width="49" height="50" viewBox="0 0 49 50" fill="none" xmlns="http://www.w3.org/2000/svg">
<path fill-rule="evenodd" clip-rule="evenodd" d="M11.2696 3.11387L0 3.84825L2.94615 49.0591L48.157 46.113L45.2109 0.9021L36.1394 1.49324C36.9107 1.79698 37.5968 2.22855 38.1976 2.78795C39.5576 3.96662 40.2376 5.66662 40.2376 7.88795C40.2376 10.064 39.7389 11.7413 38.7416 12.92C37.7443 14.0986 36.2029 14.688 34.1176 14.688C32.0776 14.688 30.5589 14.008 29.5616 12.648C28.6096 11.288 28.4963 9.40662 29.2216 7.00395H31.6696C32.8029 4.69195 32.3269 3.53595 30.2416 3.53595C28.5643 3.53595 27.0909 4.62395 25.8216 6.79995C24.5523 8.97595 23.9176 11.56 23.9176 14.552V32.776H28.7456V34H7.52961V32.776H11.2696V3.11387ZM23.9176 2.28967V8.15995C24.5069 5.84795 25.6403 4.07995 27.3176 2.85595C27.7638 2.51831 28.226 2.22558 28.7042 1.97775L23.9176 2.28967Z" fill="#FF9F47"/>
</svg>
